<?xml version="1.0" encoding="utf-8"?>
<!-- Generator: Adobe Illustrator 20.0.0, SVG Export Plug-In . SVG Version: 6.00 Build 0)  -->
<!DOCTYPE svg PUBLIC "-//W3C//DTD SVG 1.1//EN" "http://www.w3.org/Graphics/SVG/1.1/DTD/svg11.dtd">
<svg version="1.1" xmlns="http://www.w3.org/2000/svg" xmlns:xlink="http://www.w3.org/1999/xlink" x="0px" y="0px"
	 viewBox="0 0 296.3 66.7" enable-background="new 0 0 296.3 66.7" xml:space="preserve">
<g id="レイヤー_1" display="none">
	<g display="inline">
		<g>
			<g>
				<path fill="#413D3C" d="M222.3,11.1v1.3h-3.9v-1.3c0-0.5-0.2-0.9-0.5-1.3c-0.4-0.4-0.8-0.5-1.3-0.5h-22.8
					c-0.5,0-0.9,0.2-1.3,0.5c-0.4,0.4-0.5,0.8-0.5,1.3v7.7c0,0.5,0.2,0.9,0.5,1.3c0.4,0.3,0.8,0.5,1.3,0.5h22.8c1.6,0,2.9,0.6,4,1.7
					c1.1,1.1,1.7,2.5,1.7,4V34c0,1.6-0.6,2.9-1.7,4c-1.1,1.1-2.5,1.7-4,1.7h-22.8c-1.6,0-2.9-0.6-4-1.7c-1.1-1.1-1.7-2.5-1.7-4v-1.3
					h3.9V34c0,0.5,0.2,0.9,0.5,1.3c0.4,0.4,0.8,0.5,1.3,0.5h22.8c0.5,0,0.9-0.2,1.3-0.5c0.4-0.4,0.5-0.8,0.5-1.3v-7.7
					c0-0.5-0.2-0.9-0.5-1.3c-0.4-0.3-0.8-0.5-1.3-0.5h-22.8c-1.6,0-2.9-0.6-4-1.7c-1.1-1.1-1.7-2.5-1.7-4v-7.7c0-1.6,0.6-2.9,1.7-4
					c1.1-1.1,2.5-1.7,4-1.7h22.8c1.6,0,2.9,0.6,4,1.7C221.7,8.2,222.3,9.6,222.3,11.1z"/>
				<path fill="#413D3C" d="M255.4,35.3V5.4h3.9v34.3H254L228.8,9.8v29.9H225V5.4h5.3L255.4,35.3z"/>
				<path fill="#413D3C" d="M296.4,9.3h-28.5c-0.5,0-0.9,0.2-1.3,0.5c-0.4,0.4-0.5,0.8-0.5,1.3V34c0,0.5,0.2,0.9,0.5,1.3
					c0.4,0.4,0.8,0.5,1.3,0.5h28.5v3.9h-28.5c-1.6,0-2.9-0.6-4-1.7c-1.1-1.1-1.7-2.5-1.7-4V11.1c0-1.6,0.6-2.9,1.7-4
					c1.1-1.1,2.5-1.7,4-1.7h28.5V9.3z"/>
			</g>
		</g>
		<g>
			<g>
				<path fill="#413D3C" d="M96.6,24.5c0.8,1,2.9,4,3.4,4.7l-1,1.3c-0.4-0.9-1.5-2.7-2.4-4v12.1H95V26.3c-0.9,2.9-2.1,5.8-3.4,7.6
					c-0.2-0.5-0.6-1.1-0.9-1.5c1.6-2.2,3.3-6.3,4.1-9.9h-3.6v-1.6H95v-5.5l2.1,0.2c0,0.2-0.2,0.3-0.5,0.3v5.1h3.2v1.6h-3.2V24.5z
					 M114.1,27.6h-5.4c1.5,2.8,4,5.9,6.1,7.4c-0.4,0.3-1,0.9-1.3,1.3c-1.9-1.7-4.1-4.6-5.6-7.5v9.8h-1.7V29
					c-1.7,3.2-4.1,6.1-6.4,7.8c-0.3-0.4-0.8-1-1.2-1.3c2.5-1.6,5.1-4.7,6.7-7.9h-5.8V26h6.6v-4.5h-3.5c-0.4,1.3-1,2.6-1.6,3.7
					c-0.4-0.2-1-0.5-1.4-0.7c1.3-2.3,2.2-5.7,2.6-8.3l2,0.4c-0.1,0.2-0.2,0.3-0.5,0.3c-0.2,0.9-0.4,1.9-0.7,3h3.1v-4.6l2.2,0.2
					c0,0.2-0.2,0.3-0.5,0.4v4.1h5.5v1.6h-5.5V26h6.2V27.6z"/>
				<path fill="#413D3C" d="M137.8,21.8h-7.6c0.6,8.1,2.6,15.1,5.3,15.1c0.7,0,1.1-1.5,1.2-4.9c0.4,0.4,1,0.8,1.5,1
					c-0.3,4.4-1,5.7-2.9,5.7c-4.1,0-6.2-7.8-6.9-16.9h-13.3v-1.7h13.2c-0.1-1.6-0.1-3.1-0.2-4.7l2.4,0.1c0,0.2-0.2,0.4-0.5,0.4
					c0,1.4,0,2.8,0.1,4.2h7.7V21.8z M122.4,27.4v7.5c1.8-0.4,3.7-0.8,5.6-1.3l0.1,1.5c-4.3,1.1-8.9,2.2-11.8,2.8
					c0,0.2-0.2,0.4-0.4,0.4l-0.7-2c1.5-0.3,3.4-0.7,5.5-1.1v-7.8h-4.7v-1.6h11.3v1.6H122.4z M133,15.5c1.4,0.9,3,2.2,3.8,3.1
					l-1.2,1.1c-0.8-0.9-2.4-2.3-3.7-3.3L133,15.5z"/>
				<path fill="#413D3C" d="M151.8,15.4c-0.1,0.2-0.3,0.3-0.5,0.4c2.5,3.4,7,6.8,11,8.5c-0.4,0.4-0.8,1-1.1,1.5
					c-4-2-8.5-5.4-10.9-8.8c-2.1,3.1-6.3,6.7-10.7,8.9c-0.2-0.4-0.6-1-1-1.4c4.4-2.1,8.8-5.9,10.8-9.3L151.8,15.4z M139.9,29.8v-1.6
					H161v1.6h-12.1l0.3,0.1c-0.1,0.2-0.3,0.3-0.6,0.3c-0.8,1.7-1.9,4-3,5.8c3.3-0.1,7.2-0.2,11.1-0.3c-1.1-1.3-2.4-2.7-3.7-3.8
					l1.4-0.8c2.4,2,4.9,4.8,6.1,6.7l-1.5,1c-0.3-0.5-0.7-1.1-1.2-1.8c-6.1,0.3-12.6,0.6-16.6,0.7c-0.1,0.2-0.2,0.3-0.4,0.4l-0.6-2
					c1.1,0,2.3,0,3.7-0.1c1-1.8,2.2-4.3,3-6.2H139.9z M144.2,23.3h12.2v1.6h-12.2V23.3z"/>
				<path fill="#413D3C" d="M172.9,20.7c0,0.1-0.2,0.2-0.3,0.3c-0.9,2.1-2.2,4.1-3.6,5.9c1.2,0.8,3.7,2.6,4.3,3.1l-1,1.4
					c-0.7-0.7-2.3-2-3.5-3v10.3h-1.7v-9.7c-1.3,1.3-2.6,2.4-3.9,3.3c-0.2-0.4-0.6-1.2-0.9-1.5c3.2-2,6.5-5.5,8.3-9.1h-7.7v-1.6h4.2
					v-4.8l2.2,0.1c0,0.2-0.2,0.3-0.5,0.4v4.3h2.7l0.3-0.1L172.9,20.7z M180.1,36.3h6.1V38h-14.4v-1.7h6.6V25.4h-5.6v-1.6h5.6v-8.2
					l2.2,0.2c0,0.2-0.2,0.3-0.5,0.4v7.7h5.6v1.6h-5.6V36.3z"/>
			</g>
		</g>
		<g>
			<g>
				<path fill="#413D3C" d="M100.9,58.2c0.5,0,2,0,2.9-0.2l0,0.7c-1,0.1-2.3,0.1-2.8,0.1h-3.6c-2,0-3-0.9-3-2.8V48l1.1,0.1
					c0,0.1-0.1,0.2-0.4,0.2v4.7c2.3-0.7,5.3-1.8,7.2-2.8l0.6,0.7c0,0-0.1,0-0.2,0c-0.1,0-0.1,0-0.2,0c-1.8,0.9-5,2.1-7.4,2.8v2.5
					c0,1.5,0.8,2.1,2.2,2.1H100.9z M102.1,47.6c0.7,0.6,1.4,1.4,1.8,2.1l-0.4,0.3c-0.4-0.6-1.2-1.5-1.8-2.1L102.1,47.6z M103.8,46.7
					c0.7,0.6,1.4,1.4,1.8,2.1l-0.4,0.3c-0.4-0.6-1.2-1.5-1.8-2.1L103.8,46.7z"/>
				<path fill="#413D3C" d="M108.6,51.5c1.3,0.3,2.9,0.8,3.8,1.2l-0.3,0.7c-0.9-0.4-2.6-1-3.8-1.3L108.6,51.5z M109.6,58.4
					c4.5-1.6,7.7-4.1,9.5-8.2c0.2,0.2,0.5,0.3,0.6,0.4c-1.8,4.2-5.1,6.8-9.4,8.3c0,0.1,0,0.3-0.1,0.3L109.6,58.4z M110.1,48.1
					c1.2,0.3,2.8,0.9,3.8,1.3l-0.3,0.6c-1-0.5-2.5-1-3.7-1.4L110.1,48.1z M116.6,47.6c0.6,0.5,1.4,1.4,1.9,2l-0.4,0.3
					c-0.4-0.6-1.2-1.6-1.8-2.1L116.6,47.6z M118.5,46.7c0.6,0.5,1.4,1.4,1.9,2l-0.4,0.3c-0.4-0.6-1.2-1.5-1.8-2L118.5,46.7z"/>
				<path fill="#413D3C" d="M133.3,50.6c0,0.1-0.1,0.1-0.2,0.1c-0.9,1.1-2.1,2.3-3.4,3.3l0.2,0c0,0.1-0.1,0.2-0.3,0.2v5.3h-0.7v-5
					c-1.5,1-3.4,2-5.2,2.8c-0.1-0.1-0.4-0.5-0.5-0.6c3.6-1.3,6.7-3.5,8.7-5.8h-7.3v-0.7h8l0.1-0.1L133.3,50.6z M131.3,49.4
					c-1.2-0.7-3.2-1.3-4.7-1.7l0.3-0.6c1.5,0.4,3.5,1.1,4.7,1.7L131.3,49.4z M131,54.1c1.4,0.7,3.2,1.8,4.2,2.6l-0.5,0.5
					c-0.9-0.8-2.7-1.9-4.1-2.6L131,54.1z"/>
				<path fill="#413D3C" d="M148.1,48.8c0,0.1-0.1,0.1-0.2,0.1c-0.8,1.8-1.7,3.4-2.8,4.8c1.6,1.3,3.9,3.4,5.2,4.8l-0.6,0.5
					c-1.3-1.5-3.6-3.6-5.1-4.8c-1.2,1.5-3.4,3.7-5.5,4.8c-0.1-0.2-0.3-0.4-0.5-0.6c4-2.2,7.1-6.3,8.3-9.4h-7v-0.7h7.4l0.1-0.1
					L148.1,48.8z"/>
				<path fill="#413D3C" d="M156.3,48c0,0.1-0.2,0.2-0.5,0.2c-0.5,2.2-0.7,4.7-0.7,6.3c0,1.1,0.1,2.3,0.2,3c0.3-0.8,0.9-2.3,1.1-2.8
					l0.5,0.4c-0.6,1.5-1,2.3-1.2,2.9c-0.1,0.2-0.1,0.4-0.1,0.6c0,0.2,0,0.3,0.1,0.4l-0.7,0.2c-0.5-1.3-0.6-2.9-0.6-4.7
					c0-1.8,0.3-4.3,0.8-6.7L156.3,48z M165.3,58.1c-0.5,0-1,0-1.4,0c-1,0-2-0.1-2.7-0.2c-1.6-0.2-2.4-1.2-2.4-2.3
					c0-0.9,0.5-1.7,1.3-2.6l0.7,0.3c-0.7,0.8-1.3,1.4-1.3,2.3c0,0.8,0.6,1.4,1.9,1.6c0.6,0.1,1.4,0.1,2.2,0.1c0.6,0,1.2,0,1.7-0.1
					L165.3,58.1z M158.8,49.8c1.9,0,4.2-0.2,6.1-0.5L165,50c-1.8,0.3-4.6,0.5-6.2,0.5L158.8,49.8z"/>
				<path fill="#413D3C" d="M180.2,58.7h-0.8l-3.8-6c-0.8-1.2-1.4-2.3-2-3.4l0,0c0.1,1.3,0.1,2.5,0.1,4.3v5.1h-0.8V48.2h0.8l3.8,6
					c0.8,1.3,1.4,2.3,1.9,3.4l0,0c-0.1-1.4-0.1-2.7-0.1-4.3v-5h0.8V58.7z"/>
				<path fill="#413D3C" d="M189.5,58.7h-5.4V48.2h5.2v0.7h-4.3v3.9h4.1v0.7h-4.1V58h4.6V58.7z"/>
				<path fill="#413D3C" d="M199.4,58.7h-1l-1.5-2.6c-0.6-0.9-1-1.5-1.3-2.2h0c-0.3,0.6-0.7,1.2-1.3,2.2l-1.4,2.5h-1l3.2-5.3
					l-3.1-5.2h1l1.6,2.7c0.4,0.7,0.7,1.2,1,1.8h0c0.3-0.6,0.6-1.1,1.1-1.8l1.7-2.8h1l-3.3,5.1L199.4,58.7z"/>
				<path fill="#413D3C" d="M208.6,48.9h-3.3v9.8h-0.9v-9.8h-3.3v-0.7h7.4V48.9z"/>
				<path fill="#413D3C" d="M220.4,49.2c-0.3-0.2-1-0.5-1.8-0.5c-1.6,0-2.2,1-2.2,1.8c0,1.1,0.7,1.7,2.1,2.3
					c1.7,0.7,2.6,1.5,2.6,3.1c0,1.6-1.2,2.9-3.4,2.9c-0.9,0-2-0.3-2.5-0.7l0.3-0.7c0.6,0.4,1.4,0.7,2.3,0.7c1.5,0,2.4-0.8,2.4-2.1
					c0-1.2-0.6-1.8-2-2.4c-1.6-0.6-2.7-1.5-2.7-2.9c0-1.6,1.3-2.7,3.1-2.7c1,0,1.7,0.3,2.1,0.5L220.4,49.2z"/>
				<path fill="#413D3C" d="M235.8,48.2l-3.1,10.5h-0.8l-1.5-6c-0.4-1.5-0.6-2.5-0.8-3.5h0c-0.2,1-0.5,2-0.9,3.5l-1.7,6h-0.8
					l-2.7-10.5h0.9l1.5,5.8c0.3,1.4,0.6,2.6,0.8,3.6h0c0.2-1,0.5-2.3,0.9-3.7l1.6-5.8h0.8l1.5,5.8c0.3,1.3,0.7,2.6,0.8,3.7h0
					c0.2-1.2,0.6-2.3,0.9-3.7l1.6-5.8H235.8z"/>
				<path fill="#413D3C" d="M238.5,48.2h0.9v10.5h-0.9V48.2z"/>
				<path fill="#413D3C" d="M249.4,48.9h-3.3v9.8h-0.9v-9.8h-3.3v-0.7h7.4V48.9z"/>
				<path fill="#413D3C" d="M258.9,58.4c-0.5,0.3-1.5,0.5-2.7,0.5c-2.6,0-4.9-1.7-4.9-5.4c0-3.3,2-5.5,5.2-5.5
					c1.4,0,2.1,0.3,2.4,0.4l-0.3,0.7c-0.5-0.3-1.2-0.5-2.1-0.5c-2.7,0-4.4,1.8-4.4,4.8c0,2.9,1.6,4.6,4.3,4.6c0.9,0,1.7-0.2,2.3-0.5
					L258.9,58.4z"/>
				<path fill="#413D3C" d="M269.2,58.7h-0.9v-5.2h-5.5v5.2H262V48.2h0.9v4.6h5.5v-4.6h0.9V58.7z"/>
				<path fill="#413D3C" d="M279.7,52.6c0.6-0.6,1.6-1,2.3-1c1,0,1.6,0.7,1.7,1.8c1.2-0.5,2.7-1.1,3.9-1.6l0.4,0.8c0,0-0.1,0-0.1,0
					c-0.1,0-0.2,0-0.2-0.1c-1.1,0.4-2.7,1-3.8,1.5c0,0.3,0,0.7,0,1.2c0,0.5,0,1,0,1.6l-0.8,0c0-0.5,0.1-1.2,0.1-1.7
					c0-0.3,0-0.5,0-0.8c-1.7,0.8-3.2,1.8-3.2,2.8c0,0.9,1,1.3,3.1,1.3c1.4,0,2.6,0,3.5-0.2v0.7c-0.9,0.1-2.1,0.1-3.5,0.1
					c-2.7,0-3.8-0.7-3.8-2c0-1.3,1.7-2.4,3.8-3.5c-0.1-1-0.5-1.5-1.2-1.5c-1,0-2.1,0.6-3.4,2c-0.4,0.4-0.9,1-1.6,1.5l-0.5-0.5
					c1.5-1.3,2.8-2.5,3.6-5.3l-0.9,0h-2.4v-0.7c0.9,0,1.8,0,2.4,0l1,0c0.2-0.7,0.3-1.3,0.4-2l1.1,0.2c0,0.1-0.1,0.2-0.3,0.2
					c-0.1,0.6-0.2,1.1-0.4,1.6c0.9,0,3.1-0.2,5-0.8l0.1,0.7c-1.9,0.6-4,0.8-5.3,0.8C280.4,51.2,280,52.1,279.7,52.6L279.7,52.6z"/>
				<path fill="#413D3C" d="M295,57.9c0,1.1-0.9,1.9-1.9,1.9c-1.1,0-1.9-0.9-1.9-1.9s0.9-1.9,1.9-1.9C294.2,56,295,56.9,295,57.9z
					 M294.5,57.9c0-0.8-0.7-1.5-1.5-1.5c-0.8,0-1.5,0.7-1.5,1.5c0,0.8,0.7,1.5,1.5,1.5C293.9,59.4,294.5,58.7,294.5,57.9z"/>
			</g>
		</g>
		<g>
			<g>
				
					<linearGradient id="SVGID_1_" gradientUnits="userSpaceOnUse" x1="64.485" y1="17.9458" x2="64.485" y2="82.8401" gradientTransform="matrix(1 0 0 1 -1.430146e-04 -3.452662e-04)">
					<stop  offset="0" style="stop-color:#20A3D9"/>
					<stop  offset="1" style="stop-color:#1E2B5E"/>
				</linearGradient>
				<polygon fill="url(#SVGID_1_)" points="51.1,66.7 40.9,59.5 67.7,40.4 40.9,21.4 51.1,14.2 88.1,40.4 				"/>
				<g opacity="0.8">
					<polygon fill="#0A4C7E" points="51.1,65.7 41.6,58.9 40.9,59.5 51.1,66.7 88.1,40.4 87.3,39.9 					"/>
					<polygon fill="#0A4C7E" points="67.7,39.4 41.6,20.9 40.9,21.4 67,39.9 					"/>
				</g>
				<g opacity="0.5">
					<polygon fill="#FFFFFF" points="51.1,15.2 87.3,40.9 88.1,40.4 51.1,14.2 40.9,21.4 41.6,21.9 					"/>
					<polygon fill="#FFFFFF" points="67.7,41.4 67,40.9 40.9,59.5 41.6,60 					"/>
				</g>
			</g>
			<g>
				<g>
					<path opacity="0.3" fill="#FFFFFF" d="M47.2,45.3L37,52.5L0,26.3L37,0l10.2,7.2l-26.8,19L47.2,45.3z"/>
					
						<linearGradient id="SVGID_2_" gradientUnits="userSpaceOnUse" x1="23.5773" y1="17.0566" x2="23.5773" y2="81.951" gradientTransform="matrix(1 0 0 1 -1.430146e-04 -3.452662e-04)">
						<stop  offset="0" style="stop-color:#20A3D9"/>
						<stop  offset="1" style="stop-color:#1E2B5E"/>
					</linearGradient>
					<polygon fill="url(#SVGID_2_)" points="37,0 0,26.3 37,52.5 47.2,45.3 20.4,26.3 47.2,7.2 					"/>
					<polygon opacity="0.3" fill="#FFFFFF" points="37,0 0,26.3 37,52.5 47.2,45.3 20.4,26.3 47.2,7.2 					"/>
				</g>
				<g opacity="0.8">
					<polygon fill="#0A4C7E" points="37,51.5 0.7,25.7 0,26.3 37,52.5 47.2,45.3 46.4,44.8 					"/>
					<polygon fill="#0A4C7E" points="20.4,25.2 21.1,25.7 47.2,7.2 46.4,6.7 					"/>
				</g>
				<g opacity="0.5">
					<polygon fill="#FFFFFF" points="37,1 46.4,7.7 47.2,7.2 37,0 0,26.3 0.7,26.8 					"/>
					<polygon fill="#FFFFFF" points="20.4,27.3 46.4,45.8 47.2,45.3 21.1,26.8 					"/>
				</g>
			</g>
		</g>
	</g>
</g>
<g id="レイヤー_1のコピー">
	<g>
		<g>
			<g>
				<path fill="#413D3C" d="M222.3,11.8v1.3h-3.9v-1.3c0-0.5-0.2-0.9-0.5-1.3c-0.4-0.4-0.8-0.5-1.3-0.5h-22.8
					c-0.5,0-0.9,0.2-1.3,0.5c-0.4,0.4-0.5,0.8-0.5,1.3v7.7c0,0.5,0.2,0.9,0.5,1.3c0.4,0.3,0.8,0.5,1.3,0.5h22.8c1.6,0,2.9,0.6,4,1.7
					c1.1,1.1,1.7,2.5,1.7,4v7.7c0,1.6-0.6,2.9-1.7,4c-1.1,1.1-2.5,1.7-4,1.7h-22.8c-1.6,0-2.9-0.6-4-1.7c-1.1-1.1-1.7-2.5-1.7-4
					v-1.3h3.9v1.3c0,0.5,0.2,0.9,0.5,1.3c0.4,0.4,0.8,0.5,1.3,0.5h22.8c0.5,0,0.9-0.2,1.3-0.5c0.4-0.4,0.5-0.8,0.5-1.3V27
					c0-0.5-0.2-0.9-0.5-1.3c-0.4-0.3-0.8-0.5-1.3-0.5h-22.8c-1.6,0-2.9-0.6-4-1.7c-1.1-1.1-1.7-2.5-1.7-4v-7.7c0-1.6,0.6-2.9,1.7-4
					c1.1-1.1,2.5-1.7,4-1.7h22.8c1.6,0,2.9,0.6,4,1.7C221.7,8.9,222.3,10.2,222.3,11.8z"/>
				<path fill="#413D3C" d="M255.4,36V6.1h3.9v34.3H254l-25.1-29.9v29.9H225V6.1h5.3L255.4,36z"/>
				<path fill="#413D3C" d="M296.4,10h-28.5c-0.5,0-0.9,0.2-1.3,0.5c-0.4,0.4-0.5,0.8-0.5,1.3v22.8c0,0.5,0.2,0.9,0.5,1.3
					c0.4,0.4,0.8,0.5,1.3,0.5h28.5v3.9h-28.5c-1.6,0-2.9-0.6-4-1.7c-1.1-1.1-1.7-2.5-1.7-4V11.8c0-1.6,0.6-2.9,1.7-4
					c1.1-1.1,2.5-1.7,4-1.7h28.5V10z"/>
			</g>
		</g>
		<g>
			<g>
				<path fill="#413D3C" d="M96.6,25.2c0.8,1,2.9,4,3.4,4.7l-1,1.3c-0.4-0.9-1.5-2.7-2.4-4v12.1H95V27c-0.9,2.9-2.1,5.8-3.4,7.6
					c-0.2-0.5-0.6-1.1-0.9-1.5c1.6-2.2,3.3-6.3,4.1-9.9h-3.6v-1.6H95V16l2.1,0.2c0,0.2-0.2,0.3-0.5,0.3v5.1h3.2v1.6h-3.2V25.2z
					 M114.1,28.3h-5.4c1.5,2.8,4,5.9,6.1,7.4c-0.4,0.3-1,0.9-1.3,1.3c-1.9-1.7-4.1-4.6-5.6-7.5v9.8h-1.7v-9.6
					c-1.7,3.2-4.1,6.1-6.4,7.8c-0.3-0.4-0.8-1-1.2-1.3c2.5-1.6,5.1-4.7,6.7-7.9h-5.8v-1.6h6.6v-4.5h-3.5c-0.4,1.3-1,2.6-1.6,3.7
					c-0.4-0.2-1-0.5-1.4-0.7c1.3-2.3,2.2-5.7,2.6-8.3l2,0.4c-0.1,0.2-0.2,0.3-0.5,0.3c-0.2,0.9-0.4,1.9-0.7,3h3.1V16l2.2,0.2
					c0,0.2-0.2,0.3-0.5,0.4v4.1h5.5v1.6h-5.5v4.5h6.2V28.3z"/>
				<path fill="#413D3C" d="M137.8,22.5h-7.6c0.6,8.1,2.6,15.1,5.3,15.1c0.7,0,1.1-1.5,1.2-4.9c0.4,0.4,1,0.8,1.5,1
					c-0.3,4.4-1,5.7-2.9,5.7c-4.1,0-6.2-7.8-6.9-16.9h-13.3v-1.7h13.2c-0.1-1.6-0.1-3.1-0.2-4.7l2.4,0.1c0,0.2-0.2,0.4-0.5,0.4
					c0,1.4,0,2.8,0.1,4.2h7.7V22.5z M122.4,28.1v7.5c1.8-0.4,3.7-0.8,5.6-1.3l0.1,1.5c-4.3,1.1-8.9,2.2-11.8,2.8
					c0,0.2-0.2,0.4-0.4,0.4l-0.7-2c1.5-0.3,3.4-0.7,5.5-1.1v-7.8h-4.7v-1.6h11.3v1.6H122.4z M133,16.2c1.4,0.9,3,2.2,3.8,3.1
					l-1.2,1.1c-0.8-0.9-2.4-2.3-3.7-3.3L133,16.2z"/>
				<path fill="#413D3C" d="M151.8,16.1c-0.1,0.2-0.3,0.3-0.5,0.4c2.5,3.4,7,6.8,11,8.5c-0.4,0.4-0.8,1-1.1,1.5
					c-4-2-8.5-5.4-10.9-8.8c-2.1,3.1-6.3,6.7-10.7,8.9c-0.2-0.4-0.6-1-1-1.4c4.4-2.1,8.8-5.9,10.8-9.3L151.8,16.1z M139.9,30.5v-1.6
					H161v1.6h-12.1l0.3,0.1c-0.1,0.2-0.3,0.3-0.6,0.3c-0.8,1.7-1.9,4-3,5.8c3.3-0.1,7.2-0.2,11.1-0.3c-1.1-1.3-2.4-2.7-3.7-3.8
					l1.4-0.8c2.4,2,4.9,4.8,6.1,6.7l-1.5,1c-0.3-0.5-0.7-1.1-1.2-1.8c-6.1,0.3-12.6,0.6-16.6,0.7c-0.1,0.2-0.2,0.3-0.4,0.4l-0.6-2
					c1.1,0,2.3,0,3.7-0.1c1-1.8,2.2-4.3,3-6.2H139.9z M144.2,24h12.2v1.6h-12.2V24z"/>
				<path fill="#413D3C" d="M172.9,21.4c0,0.1-0.2,0.2-0.3,0.3c-0.9,2.1-2.2,4.1-3.6,5.9c1.2,0.8,3.7,2.6,4.3,3.1l-1,1.4
					c-0.7-0.7-2.3-2-3.5-3v10.3h-1.7v-9.7c-1.3,1.3-2.6,2.4-3.9,3.3c-0.2-0.4-0.6-1.2-0.9-1.5c3.2-2,6.5-5.5,8.3-9.1h-7.7v-1.6h4.2
					v-4.8l2.2,0.1c0,0.2-0.2,0.3-0.5,0.4v4.3h2.7l0.3-0.1L172.9,21.4z M180.1,37h6.1v1.7h-14.4V37h6.6V26.1h-5.6v-1.6h5.6v-8.2
					l2.2,0.2c0,0.2-0.2,0.3-0.5,0.4v7.7h5.6v1.6h-5.6V37z"/>
			</g>
		</g>
		<g>
			<g>
				<path fill="#413D3C" d="M100.9,58.9c0.5,0,2,0,2.9-0.2l0,0.7c-1,0.1-2.3,0.1-2.8,0.1h-3.6c-2,0-3-0.9-3-2.8v-8.1l1.1,0.1
					c0,0.1-0.1,0.2-0.4,0.2v4.7c2.3-0.7,5.3-1.8,7.2-2.8l0.6,0.7c0,0-0.1,0-0.2,0c-0.1,0-0.1,0-0.2,0c-1.8,0.9-5,2.1-7.4,2.8v2.5
					c0,1.5,0.8,2.1,2.2,2.1H100.9z M102.1,48.3c0.7,0.6,1.4,1.4,1.8,2.1l-0.4,0.3c-0.4-0.6-1.2-1.5-1.8-2.1L102.1,48.3z M103.8,47.4
					c0.7,0.6,1.4,1.4,1.8,2.1l-0.4,0.3c-0.4-0.6-1.2-1.5-1.8-2.1L103.8,47.4z"/>
				<path fill="#413D3C" d="M108.6,52.2c1.3,0.3,2.9,0.8,3.8,1.2l-0.3,0.7c-0.9-0.4-2.6-1-3.8-1.3L108.6,52.2z M109.6,59.1
					c4.5-1.6,7.7-4.1,9.5-8.2c0.2,0.2,0.5,0.3,0.6,0.4c-1.8,4.2-5.1,6.8-9.4,8.3c0,0.1,0,0.3-0.1,0.3L109.6,59.1z M110.1,48.7
					c1.2,0.3,2.8,0.9,3.8,1.3l-0.3,0.6c-1-0.5-2.5-1-3.7-1.4L110.1,48.7z M116.6,48.3c0.6,0.5,1.4,1.4,1.9,2l-0.4,0.3
					c-0.4-0.6-1.2-1.6-1.8-2.1L116.6,48.3z M118.5,47.4c0.6,0.5,1.4,1.4,1.9,2l-0.4,0.3c-0.4-0.6-1.2-1.5-1.8-2L118.5,47.4z"/>
				<path fill="#413D3C" d="M133.3,51.3c0,0.1-0.1,0.1-0.2,0.1c-0.9,1.1-2.1,2.3-3.4,3.3l0.2,0c0,0.1-0.1,0.2-0.3,0.2v5.3h-0.7v-5
					c-1.5,1-3.4,2-5.2,2.8c-0.1-0.1-0.4-0.5-0.5-0.6c3.6-1.3,6.7-3.5,8.7-5.8h-7.3V51h8l0.1-0.1L133.3,51.3z M131.3,50.1
					c-1.2-0.7-3.2-1.3-4.7-1.7l0.3-0.6c1.5,0.4,3.5,1.1,4.7,1.7L131.3,50.1z M131,54.8c1.4,0.7,3.2,1.8,4.2,2.6l-0.5,0.5
					c-0.9-0.8-2.7-1.9-4.1-2.6L131,54.8z"/>
				<path fill="#413D3C" d="M148.1,49.5c0,0.1-0.1,0.1-0.2,0.1c-0.8,1.8-1.7,3.4-2.8,4.8c1.6,1.3,3.9,3.4,5.2,4.8l-0.6,0.5
					c-1.3-1.5-3.6-3.6-5.1-4.8c-1.2,1.5-3.4,3.7-5.5,4.8c-0.1-0.2-0.3-0.4-0.5-0.6c4-2.2,7.1-6.3,8.3-9.4h-7v-0.7h7.4l0.1-0.1
					L148.1,49.5z"/>
				<path fill="#413D3C" d="M156.3,48.7c0,0.1-0.2,0.2-0.5,0.2c-0.5,2.2-0.7,4.7-0.7,6.3c0,1.1,0.1,2.3,0.2,3
					c0.3-0.8,0.9-2.3,1.1-2.8l0.5,0.4c-0.6,1.5-1,2.3-1.2,2.9c-0.1,0.2-0.1,0.4-0.1,0.6c0,0.2,0,0.3,0.1,0.4L155,60
					c-0.5-1.3-0.6-2.9-0.6-4.7c0-1.8,0.3-4.3,0.8-6.7L156.3,48.7z M165.3,58.8c-0.5,0-1,0-1.4,0c-1,0-2-0.1-2.7-0.2
					c-1.6-0.2-2.4-1.2-2.4-2.3c0-0.9,0.5-1.7,1.3-2.6l0.7,0.3c-0.7,0.8-1.3,1.4-1.3,2.3c0,0.8,0.6,1.4,1.9,1.6
					c0.6,0.1,1.4,0.1,2.2,0.1c0.6,0,1.2,0,1.7-0.1L165.3,58.8z M158.8,50.5c1.9,0,4.2-0.2,6.1-0.5l0.1,0.7c-1.8,0.3-4.6,0.5-6.2,0.5
					L158.8,50.5z"/>
				<path fill="#413D3C" d="M180.2,59.4h-0.8l-3.8-6c-0.8-1.2-1.4-2.3-2-3.4l0,0c0.1,1.3,0.1,2.5,0.1,4.3v5.1h-0.8V48.9h0.8l3.8,6
					c0.8,1.3,1.4,2.3,1.9,3.4l0,0c-0.1-1.4-0.1-2.7-0.1-4.3v-5h0.8V59.4z"/>
				<path fill="#413D3C" d="M189.5,59.4h-5.4V48.9h5.2v0.7h-4.3v3.9h4.1v0.7h-4.1v4.5h4.6V59.4z"/>
				<path fill="#413D3C" d="M199.4,59.4h-1l-1.5-2.6c-0.6-0.9-1-1.5-1.3-2.2h0c-0.3,0.6-0.7,1.2-1.3,2.2l-1.4,2.5h-1l3.2-5.3
					l-3.1-5.2h1l1.6,2.7c0.4,0.7,0.7,1.2,1,1.8h0c0.3-0.6,0.6-1.1,1.1-1.8l1.7-2.8h1l-3.3,5.1L199.4,59.4z"/>
				<path fill="#413D3C" d="M208.6,49.6h-3.3v9.8h-0.9v-9.8h-3.3v-0.7h7.4V49.6z"/>
				<path fill="#413D3C" d="M220.4,49.9c-0.3-0.2-1-0.5-1.8-0.5c-1.6,0-2.2,1-2.2,1.8c0,1.1,0.7,1.7,2.1,2.3
					c1.7,0.7,2.6,1.5,2.6,3.1c0,1.6-1.2,2.9-3.4,2.9c-0.9,0-2-0.3-2.5-0.7l0.3-0.7c0.6,0.4,1.4,0.7,2.3,0.7c1.5,0,2.4-0.8,2.4-2.1
					c0-1.2-0.6-1.8-2-2.4c-1.6-0.6-2.7-1.5-2.7-2.9c0-1.6,1.3-2.7,3.1-2.7c1,0,1.7,0.3,2.1,0.5L220.4,49.9z"/>
				<path fill="#413D3C" d="M235.8,48.9l-3.1,10.5h-0.8l-1.5-6c-0.4-1.5-0.6-2.5-0.8-3.5h0c-0.2,1-0.5,2-0.9,3.5l-1.7,6h-0.8
					l-2.7-10.5h0.9l1.5,5.8c0.3,1.4,0.6,2.6,0.8,3.6h0c0.2-1,0.5-2.3,0.9-3.7l1.6-5.8h0.8l1.5,5.8c0.3,1.3,0.7,2.6,0.8,3.7h0
					c0.2-1.2,0.6-2.3,0.9-3.7l1.6-5.8H235.8z"/>
				<path fill="#413D3C" d="M238.5,48.9h0.9v10.5h-0.9V48.9z"/>
				<path fill="#413D3C" d="M249.4,49.6h-3.3v9.8h-0.9v-9.8h-3.3v-0.7h7.4V49.6z"/>
				<path fill="#413D3C" d="M258.9,59.1c-0.5,0.3-1.5,0.5-2.7,0.5c-2.6,0-4.9-1.7-4.9-5.4c0-3.3,2-5.5,5.2-5.5
					c1.4,0,2.1,0.3,2.4,0.4l-0.3,0.7c-0.5-0.3-1.2-0.5-2.1-0.5c-2.7,0-4.4,1.8-4.4,4.8c0,2.9,1.6,4.6,4.3,4.6c0.9,0,1.7-0.2,2.3-0.5
					L258.9,59.1z"/>
				<path fill="#413D3C" d="M269.2,59.4h-0.9v-5.2h-5.5v5.2H262V48.9h0.9v4.6h5.5v-4.6h0.9V59.4z"/>
				<path fill="#413D3C" d="M279.7,53.3c0.6-0.6,1.6-1,2.3-1c1,0,1.6,0.7,1.7,1.8c1.2-0.5,2.7-1.1,3.9-1.6l0.4,0.8c0,0-0.1,0-0.1,0
					c-0.1,0-0.2,0-0.2-0.1c-1.1,0.4-2.7,1-3.8,1.5c0,0.3,0,0.7,0,1.2c0,0.5,0,1,0,1.6l-0.8,0c0-0.5,0.1-1.2,0.1-1.7
					c0-0.3,0-0.5,0-0.8C281.4,56,280,57,280,58c0,0.9,1,1.3,3.1,1.3c1.4,0,2.6,0,3.5-0.2v0.7c-0.9,0.1-2.1,0.1-3.5,0.1
					c-2.7,0-3.8-0.7-3.8-2c0-1.3,1.7-2.4,3.8-3.5c-0.1-1-0.5-1.5-1.2-1.5c-1,0-2.1,0.6-3.4,2c-0.4,0.4-0.9,1-1.6,1.5l-0.5-0.5
					c1.5-1.3,2.8-2.5,3.6-5.3l-0.9,0h-2.4v-0.7c0.9,0,1.8,0,2.4,0l1,0c0.2-0.7,0.3-1.3,0.4-2l1.1,0.2c0,0.1-0.1,0.2-0.3,0.2
					c-0.1,0.6-0.2,1.1-0.4,1.6c0.9,0,3.1-0.2,5-0.8l0.1,0.7c-1.9,0.6-4,0.8-5.3,0.8C280.4,51.9,280,52.8,279.7,53.3L279.7,53.3z"/>
				<path fill="#413D3C" d="M295,58.6c0,1.1-0.9,1.9-1.9,1.9c-1.1,0-1.9-0.9-1.9-1.9s0.9-1.9,1.9-1.9C294.2,56.7,295,57.6,295,58.6z
					 M294.5,58.6c0-0.8-0.7-1.5-1.5-1.5c-0.8,0-1.5,0.7-1.5,1.5c0,0.8,0.7,1.5,1.5,1.5C293.9,60.1,294.5,59.4,294.5,58.6z"/>
			</g>
		</g>
	</g>
	<g>
		<g>
			<g>
				
					<linearGradient id="SVGID_3_" gradientUnits="userSpaceOnUse" x1="65.9042" y1="17.6005" x2="65.9042" y2="83.923" gradientTransform="matrix(1 0 0 1 -1.430146e-04 -3.452662e-04)">
					<stop  offset="0" style="stop-color:#20A3D9"/>
					<stop  offset="1" style="stop-color:#1E2B5E"/>
				</linearGradient>
				<polygon fill="url(#SVGID_3_)" points="52.2,67.4 41.8,60 69.2,40.6 41.8,21.1 52.2,13.7 90,40.6 				"/>
				<g opacity="0.8">
					<polygon fill="#0A4C7E" points="52.2,66.4 42.5,59.5 41.8,60 52.2,67.4 90,40.6 89.3,40.1 					"/>
					<polygon fill="#0A4C7E" points="69.2,39.5 42.5,20.6 41.8,21.1 68.5,40.1 					"/>
				</g>
				<g opacity="0.5">
					<polygon fill="#FFFFFF" points="52.2,14.8 89.3,41.1 90,40.6 52.2,13.7 41.8,21.1 42.5,21.7 					"/>
					<polygon fill="#FFFFFF" points="69.2,41.6 68.5,41.1 41.8,60 42.5,60.5 					"/>
				</g>
			</g>
			<g>
				<g>
					<path opacity="0.3" fill="#FFFFFF" d="M48.2,45.5l-10.4,7.4L0,26.1L37.8-0.7l10.4,7.4L20.8,26.1L48.2,45.5z"/>
					
						<linearGradient id="SVGID_4_" gradientUnits="userSpaceOnUse" x1="24.0961" y1="16.6918" x2="24.0961" y2="83.0143" gradientTransform="matrix(1 0 0 1 -1.430146e-04 -3.452662e-04)">
						<stop  offset="0" style="stop-color:#20A3D9"/>
						<stop  offset="1" style="stop-color:#1E2B5E"/>
					</linearGradient>
					<polygon fill="url(#SVGID_4_)" points="37.8,-0.7 0,26.1 37.8,52.9 48.2,45.5 20.8,26.1 48.2,6.6 					"/>
					<polygon opacity="0.3" fill="#FFFFFF" points="37.8,-0.7 0,26.1 37.8,52.9 48.2,45.5 20.8,26.1 48.2,6.6 					"/>
				</g>
				<g opacity="0.8">
					<polygon fill="#0A4C7E" points="37.8,51.9 0.7,25.6 0,26.1 37.8,52.9 48.2,45.5 47.5,45 					"/>
					<polygon fill="#0A4C7E" points="20.8,25 21.5,25.6 48.2,6.6 47.5,6.1 					"/>
				</g>
				<g opacity="0.5">
					<polygon fill="#FFFFFF" points="37.8,0.3 47.5,7.2 48.2,6.6 37.8,-0.7 0,26.1 0.7,26.6 					"/>
					<polygon fill="#FFFFFF" points="20.8,27.1 47.5,46.1 48.2,45.5 21.5,26.6 					"/>
				</g>
			</g>
		</g>
		<polygon opacity="0.3" fill="#FFFFFF" points="19.5,26.1 46.9,6.6 37.8,-0.1 1.3,26.1 		"/>
		<polygon opacity="0.3" fill="#FFFFFF" points="70.5,40.6 43.1,21.1 51.6,14.4 88.7,40.6 		"/>
	</g>
</g>
</svg>
